Coordinates
version=1
nRows=6
nColumns=63
inDegrees=yes

Units are S.I. units (second, meters, Newtons, ...)
If the header above contains a line with 'inDegrees', this indicates whether rotational values are in degrees (yes) or radians (no).

endheader
time	pelvis_tilt	pelvis_list	pelvis_rotation	pelvis_tx	pelvis_ty	pelvis_tz	hip_flexion_r	hip_adduction_r	hip_rotation_r	knee_angle_r	knee_angle_r_beta	ankle_angle_r	subtalar_angle_r	mtp_angle_r	hip_flexion_l	hip_adduction_l	hip_rotation_l	knee_angle_l	knee_angle_l_beta	ankle_angle_l	subtalar_angle_l	mtp_angle_l	L5_S1_Flex_Ext	L5_S1_Lat_Bending	L5_S1_axial_rotation	L4_L5_Flex_Ext	L4_L5_Lat_Bending	L4_L5_axial_rotation	L3_L4_Flex_Ext	L3_L4_Lat_Bending	L3_L4_axial_rotation	L2_L3_Flex_Ext	L2_L3_Lat_Bending	L2_L3_axial_rotation	L1_L2_Flex_Ext	L1_L2_Lat_Bending	L1_L2_axial_rotation	L1_T12_Flex_Ext	L1_T12_Lat_Bending	L1_T12_axial_rotation	Abs_r3	Abs_r2	Abs_r1	Abs_t1	Abs_t2	neck_flexion	neck_bending	neck_rotation	arm_flex_r	arm_add_r	arm_rot_r	elbow_flex_r	pro_sup_r	wrist_flex_r	wrist_dev_r	arm_flex_l	arm_add_l	arm_rot_l	elbow_flex_l	pro_sup_l	wrist_flex_l	wrist_dev_l
4.050000	0.774620	-3.362441	92.121024	0.434025	0.747732	1.081732	7.332938	-0.056378	-6.235903	18.226392	0.318111	34.894807	5.516199	0.000000	4.649799	-5.069756	-5.080988	12.100744	0.211198	38.113509	16.680422	0.000000	0.174282	0.077031	0.814419	0.323659	0.102451	0.865320	0.286328	0.187292	0.865320	0.199187	0.187292	0.712617	0.161838	0.157081	0.661716	0.099585	0.119320	0.610814	1.244879	0.871386	4.529555	0.000000	0.000000	28.367457	-0.051464	-3.495571	9.784621	-6.168813	171.727877	0.578506	23.025650	-9.045501	-3.118525	7.835129	-4.504827	145.947626	0.918730	6.276128	-7.714607	-5.015936
4.066667	0.996856	-3.185192	92.184738	0.433897	0.748105	1.082069	7.025163	0.108377	-6.923233	17.909972	0.312588	34.832021	6.286275	0.000000	4.496831	-5.320207	-5.001706	12.101337	0.211208	38.113748	16.689919	0.000000	0.152258	0.115550	0.732310	0.282758	0.153682	0.778079	0.250144	0.280949	0.778079	0.174015	0.280949	0.640771	0.141387	0.235630	0.595002	0.087000	0.178987	0.549232	1.087562	1.307127	4.072888	0.000000	0.000000	28.357452	0.309422	-2.549061	9.986498	-6.158307	171.156562	0.580990	23.108611	-8.908601	-2.898603	7.970973	-4.248618	146.546813	0.829755	6.268218	-7.397104	-4.714126
4.083333	1.170273	-3.035103	92.270641	0.433812	0.748398	1.082304	6.716751	0.206797	-7.722280	17.562931	0.306531	34.784662	7.203730	0.000000	4.378228	-5.515367	-4.858735	12.109325	0.211348	38.094431	16.645264	0.000000	0.132776	0.145458	0.665523	0.246578	0.193459	0.707118	0.218138	0.353667	0.707118	0.151750	0.353667	0.582332	0.123296	0.296618	0.540737	0.075868	0.225315	0.499142	0.948405	1.645453	3.701437	0.000000	0.000000	28.345381	0.654027	-1.766719	10.133531	-6.084751	170.374894	0.587393	23.005821	-8.728851	-2.608403	8.100867	-4.078684	146.790847	0.783989	6.468327	-7.022867	-4.245788
4.100000	1.303477	-2.877377	92.336519	0.433863	0.748665	1.082443	6.381382	0.287758	-8.410482	17.194945	0.300108	34.689246	8.003641	0.000000	4.239979	-5.675016	-4.726660	12.099177	0.211170	38.045400	16.590096	0.000000	0.110684	0.167775	0.617087	0.205551	0.223140	0.655655	0.181843	0.407927	0.655655	0.126501	0.407927	0.539951	0.102781	0.342126	0.501383	0.063245	0.259883	0.462815	0.790605	1.897899	3.432051	0.000000	0.000000	28.328674	1.010521	-1.117323	10.264794	-5.959481	169.671108	0.599097	22.172412	-8.399448	-2.376809	8.199348	-3.993061	146.945692	0.749331	6.249173	-6.593969	-3.762615
4.116667	1.394705	-2.721609	92.443218	0.433941	0.748901	1.082528	6.022996	0.329090	-9.107903	16.812401	0.293432	34.560929	8.774387	0.000000	4.114241	-5.788750	-4.520555	12.095059	0.211099	37.971309	16.498363	0.000000	0.087727	0.182184	0.577374	0.162918	0.242305	0.613460	0.144127	0.442962	0.613460	0.100264	0.442962	0.505202	0.081464	0.371510	0.469116	0.050127	0.282203	0.433030	0.626627	2.060903	3.211181	0.000000	0.000000	28.305706	1.382782	-0.618344	10.380945	-5.781750	168.920392	0.616194	21.023876	-8.004470	-2.225938	8.282694	-3.976211	146.879988	0.730962	6.083984	-6.156455	-3.281578
4.133333	1.446452	-2.563832	92.583525	0.434037	0.749118	1.082580	5.648907	0.333135	-9.801887	16.439993	0.286932	34.413231	9.505951	0.000000	3.995044	-5.860680	-4.268558	12.097470	0.211141	37.878937	16.393958	0.000000	0.063696	0.189158	0.546685	0.118290	0.251580	0.580853	0.104646	0.459919	0.580853	0.072798	0.459919	0.478349	0.059148	0.385731	0.444181	0.036396	0.293006	0.410014	0.454974	2.139795	3.040497	0.000000	0.000000	28.275387	1.752001	-0.279598	10.485978	-5.556900	168.223878	0.635953	19.633187	-7.592978	-2.179446	8.354722	-4.009696	146.605935	0.715160	6.065293	-5.722116	-2.843001
